<svg width="246" height="56" viewBox="0 0 246 56" fill="none" xmlns="http://www.w3.org/2000/svg">
<g clip-path="url(#clip0_116_5161)">
<path d="M67.33 41.56C65.93 41.18 64.61 40.57 63.35 39.74C62.09 38.91 61 37.88 60.08 36.66C59.15 35.44 58.42 33.92 57.89 32.11C57.35 30.3 57.09 28.29 57.09 26.09V6.3C57.09 5.32 56.97 4.51 56.74 3.86C56.51 3.21 56.16 2.72 55.69 2.38C55.22 2.04 54.72 1.79 54.19 1.63C53.66 1.47 53 1.37 52.21 1.31V0.5H67V1.3C66.2 1.36 65.54 1.46 65.02 1.62C64.49 1.78 63.99 2.03 63.51 2.37C63.03 2.71 62.67 3.21 62.44 3.85C62.21 4.5 62.09 5.31 62.09 6.29V26.02C62.09 30.28 63.04 33.56 64.95 35.89C66.86 38.21 69.46 39.37 72.78 39.37C74.3 39.37 75.7 39.12 77 38.63C78.3 38.14 79.47 37.4 80.51 36.42C81.55 35.44 82.38 34.11 82.98 32.42C83.58 30.74 83.88 28.78 83.88 26.56V6.3C83.88 5.32 83.76 4.51 83.52 3.86C83.28 3.21 82.91 2.72 82.42 2.38C81.93 2.04 81.41 1.79 80.87 1.63C80.32 1.47 79.64 1.37 78.83 1.31V0.5H90.71V1.3C89.91 1.36 89.24 1.46 88.7 1.62C88.15 1.78 87.63 2.03 87.13 2.37C86.63 2.71 86.26 3.21 86.01 3.87C85.76 4.53 85.64 5.34 85.64 6.3V27.01C85.64 29.47 85.28 31.68 84.57 33.63C83.86 35.58 82.87 37.17 81.6 38.39C80.33 39.61 78.87 40.54 77.2 41.18C75.53 41.82 73.71 42.14 71.73 42.14C70.21 42.14 68.76 41.95 67.36 41.57L67.33 41.56Z" fill="#600F13"/>
<path d="M100.8 38.61L100.69 28.53H101.52C101.83 30.66 102.39 32.51 103.2 34.09C104 35.67 104.98 36.91 106.13 37.81C107.28 38.71 108.48 39.36 109.75 39.78C111.02 40.2 112.37 40.4 113.82 40.4C116.65 40.4 118.89 39.69 120.52 38.26C122.16 36.84 122.98 34.93 122.98 32.54C122.98 31.78 122.87 31.07 122.66 30.42C122.45 29.76 122.18 29.17 121.86 28.64C121.54 28.11 121.09 27.59 120.53 27.09C119.97 26.58 119.4 26.14 118.84 25.77C118.28 25.4 117.56 25 116.7 24.58C115.84 24.15 115.05 23.79 114.33 23.48C113.61 23.17 112.72 22.81 111.67 22.38C107.77 20.9 104.93 19.19 103.18 17.26C101.42 15.33 100.56 13.11 100.6 10.61C100.64 7.49998 101.88 4.94998 104.33 2.95998C106.78 0.96998 110.08 -0.0200195 114.22 -0.0200195C118.36 -0.0200195 122.1 0.95998 125.99 2.91998L126.16 12.5H125.33C125.07 10.85 124.65 9.37998 124.08 8.08998C123.51 6.78998 122.85 5.74998 122.12 4.94998C121.39 4.14998 120.57 3.49998 119.65 2.98998C118.73 2.47998 117.83 2.11998 116.93 1.91998C116.03 1.71998 115.09 1.60998 114.11 1.60998C111.33 1.60998 109.1 2.28998 107.39 3.64998C105.68 5.00998 104.82 6.67998 104.78 8.65998C104.78 10.58 105.72 12.32 107.61 13.86C109.5 15.41 112.51 16.95 116.66 18.51C119.05 19.47 120.99 20.49 122.5 21.56C124.01 22.63 125.18 23.93 126.01 25.46C126.84 26.99 127.25 28.74 127.23 30.72C127.21 32.68 126.84 34.41 126.12 35.9C125.4 37.39 124.42 38.58 123.18 39.47C121.94 40.36 120.54 41.02 118.99 41.45C117.44 41.88 115.73 42.1 113.88 42.1C109.46 42.1 105.1 40.93 100.81 38.58L100.8 38.61Z" fill="#600F13"/>
<path d="M149.45 40.31C149.99 40.15 150.5 39.9 150.98 39.56C151.46 39.22 151.82 38.72 152.06 38.08C152.3 37.43 152.42 36.62 152.42 35.64V2.22H147.81C146.2 2.22 144.83 2.43 143.7 2.84C142.57 3.26 141.67 3.87 140.99 4.69C140.31 5.5 139.8 6.4 139.44 7.37C139.08 8.34 138.8 9.5 138.59 10.85L137.67 10.74L138.25 2.05L138.36 0.5H171.56L171.67 2.05L172.23 10.74L171.34 10.85C171.15 9.5 170.89 8.34 170.54 7.37C170.19 6.4 169.67 5.51 169 4.69C168.32 3.88 167.42 3.26 166.29 2.84C165.16 2.42 163.79 2.22 162.18 2.22H157.35V35.64C157.35 37.49 157.77 38.75 158.61 39.43C159.45 40.11 160.68 40.51 162.29 40.64V41.44H147.44V40.64C148.24 40.58 148.9 40.48 149.44 40.32L149.45 40.31Z" fill="#600F13"/>
<path d="M41.95 25.7799L41.84 26.0799C39.46 32.4399 37.73 35.4499 34.99 38.0099C32.78 40.0099 29.06 40.1399 27.06 40.1999H26.74L7.22001 40.3499C8.32001 39.7199 9.55001 38.8599 10.71 37.6399C12.97 35.2399 15.27 31.8599 17.38 27.8799C17.76 27.1599 18.58 25.4499 19.61 23.2999C21.45 19.4499 23.97 14.1799 26.27 9.76994C29.79 3.16994 32.78 1.83994 34.73 1.41994C36.36 1.06994 38.34 1.50994 39.4 1.73994L39.94 1.85994V0.359944L39.56 0.299944C38.66 0.169944 35.5 -0.230056 32.88 0.309944C29.31 0.989944 25.17 4.24994 23.09 6.94994C19.75 11.0499 15.1 20.9299 13.26 24.9899C10.92 30.0899 8.16001 35.6799 5.44001 38.4099C3.81001 39.9299 2.88001 40.3999 2.05001 40.6399C1.65001 40.7599 1.24001 40.8099 0.83001 40.8199L0.0100098 40.8399V42.1099H38.01L38.15 41.6499L38.97 39.1999C40.59 34.3499 42.61 28.3199 43.16 26.3799L43.32 25.8299L41.96 25.7899L41.95 25.7799Z" fill="#600F13"/>
<path d="M211.16 34.67C209.7 32.68 208.68 30.48 208.09 28.07C207.5 25.66 207.38 23.05 207.73 20.24C208.08 17.44 208.94 14.71 210.3 12.06C211.65 9.43005 213.35 7.17005 215.4 5.30005C217.45 3.43005 219.61 2.06005 221.89 1.19005C224.17 0.320046 226.53 -0.0699542 228.96 4.57717e-05C231.4 0.0800458 233.68 0.660046 235.82 1.76005C237.96 2.86005 239.77 4.37005 241.26 6.32005C242.75 8.26005 243.81 10.41 244.44 12.77C245.07 15.13 245.22 17.69 244.9 20.45C244.58 23.21 243.74 25.9 242.39 28.54C241.03 31.19 239.31 33.47 237.23 35.39C235.15 37.31 232.95 38.72 230.63 39.65C228.31 40.57 225.92 41.02 223.45 40.99C220.98 40.96 218.68 40.39 216.54 39.3C214.41 38.2 212.61 36.66 211.15 34.68L211.16 34.67ZM211.66 23.78C211.21 26.88 211.45 29.71 212.38 32.27C213.31 34.83 214.94 36.7 217.26 37.9C219.6 39.1 222.08 39.33 224.72 38.6C227.36 37.86 229.81 36.4 232.07 34.22C234.33 32.04 236.27 29.38 237.89 26.23C239.49 23.12 240.5 20.04 240.92 17C241.34 13.95 241.07 11.18 240.1 8.66005C239.13 6.15005 237.48 4.29005 235.14 3.09005C232.82 1.90005 230.36 1.64005 227.76 2.33005C225.16 3.01005 222.74 4.42005 220.51 6.55005C218.27 8.68005 216.35 11.3 214.76 14.41C213.17 17.52 212.11 20.68 211.66 23.78Z" fill="#600F13"/>
<path d="M172.94 43.13C174.99 42.75 175.51 44.07 175.44 45.2C175.42 47.04 175.22 49.82 178.04 51.96C180.48 53.78 182.85 54.93 188.78 54.07C195.9 53.06 204.1 42.6 209.34 36.41C214.08 30.9 219.03 24.69 224.62 23.94C230.48 23.15 233.34 25.09 234.45 26.92C235.25 28.35 235.65 29.7 234.85 34.3C233.99 38.52 234.11 34.76 233.89 34.41C234.33 31.83 234.67 28.08 232.69 26.31C231.4 25.17 228.09 24.65 224.48 26.36C219.82 28.55 215.47 34.88 212.42 38.47C209.22 42.34 203.55 50.23 194.46 54.42C191.45 55.73 186.3 56.62 181.97 55.32C176.52 53.72 173.83 49.58 173.08 48.47C171.49 46.12 171.37 43.59 172.93 43.14L172.94 43.13Z" fill="#600F13"/>
<path d="M188.89 7.74998C190.967 7.74998 192.65 6.06657 192.65 3.98998C192.65 1.91339 190.967 0.22998 188.89 0.22998C186.813 0.22998 185.13 1.91339 185.13 3.98998C185.13 6.06657 186.813 7.74998 188.89 7.74998Z" fill="#600F13"/>
<path d="M189.76 30.7401C189.52 29.7501 189.28 28.7701 189.08 27.7801C188.83 26.6001 188.84 25.3901 189.08 24.2101C189.71 21.1301 190.55 18.0901 191.54 15.0701C192.45 12.5401 189.9 9.96005 187.34 10.8701C185.61 11.4601 184.69 13.3401 185.28 15.0701C185.98 17.1201 186.54 19.1701 187.05 21.2201C187.29 22.2101 187.53 23.1901 187.73 24.1801C187.98 25.3601 187.97 26.5701 187.73 27.7501C187.1 30.8301 186.26 33.8701 185.27 36.8901C184.36 39.4201 186.91 42.0001 189.47 41.0901C191.2 40.5001 192.12 38.6201 191.53 36.8901C190.83 34.8401 190.27 32.7901 189.76 30.7401Z" fill="#600F13"/>
</g>
<defs>
<clipPath id="clip0_116_5161">
<rect width="245.06" height="55.95" fill="white"/>
</clipPath>
</defs>
</svg>
