<svg width="30" height="28" viewBox="0 0 30 28" fill="none" xmlns="http://www.w3.org/2000/svg">
<g clip-path="url(#clip0_116_6053)">
<path d="M23.1076 2.47204C22.2436 1.24075 20.9525 0.432425 19.7658 0.197447C18.8924 6.5477e-05 17.7531 -0.112724 16.3765 0.159851C14.6772 0.479421 12.8639 2.03968 11.6962 3.55294C10.2721 5.28238 8.20249 9.2958 6.51262 12.9709C5.01262 16.2136 3.66451 18.7419 2.31641 20.086C1.1392 21.1763 0.607554 21.2797 -4.17063e-05 21.4113L1.20565 21.4113C1.83224 21.1387 2.90502 20.6124 4.10122 19.3717C5.41135 17.99 6.61705 16.1478 7.59489 14.2961C8.14553 13.2716 10.386 8.44048 12.3038 4.78422C14.231 1.22195 15.7025 0.733197 16.7563 0.498219C17.5822 0.338434 18.8259 0.366632 19.8322 0.686202C20.5917 0.92118 22.1487 1.49453 22.424 4.60564C22.8038 8.70366 20.7436 10.0477 17.7626 11.0816L17.7626 11.4388C18.9398 11.1286 21.9588 9.93494 23.0411 7.94233C24.2848 5.94031 23.962 3.64693 23.0886 2.47204L23.1076 2.47204Z" fill="#FE586A"/>
<path d="M6.90193 2.47204C7.76585 1.24075 9.05699 0.432426 10.2437 0.197447C11.1171 6.5643e-05 12.2564 -0.112724 13.6329 0.159851C15.3323 0.479421 17.1456 2.03968 18.3133 3.55294C19.7374 5.28238 21.807 9.2958 23.4969 12.9709C24.9969 16.2136 26.345 18.7419 27.6931 20.086C28.8703 21.1763 29.4019 21.2797 30.0095 21.4113L28.8038 21.4113C28.1772 21.1387 27.1045 20.6124 25.9083 19.3717C24.5981 17.99 23.3924 16.1478 22.4146 14.2961C21.864 13.2716 19.6234 8.44048 17.7057 4.78422C15.788 1.22195 14.307 0.723798 13.2532 0.498219C12.4272 0.338434 11.1836 0.366632 10.1772 0.686202C9.41775 0.92118 7.86079 1.49453 7.58547 4.60564C7.20572 8.70366 9.26585 10.0477 12.2469 11.0816L12.2469 11.4388C11.0696 11.1286 8.05066 9.93494 6.96838 7.94233C5.72471 5.94031 6.0475 3.64693 6.92092 2.47204L6.90193 2.47204Z" fill="#FE586A"/>
<path d="M23.1076 25.5281C22.2436 26.7594 20.9525 27.5677 19.7658 27.8027C18.8924 28.0001 17.7531 28.1129 16.3765 27.8403C14.6772 27.5207 12.8639 25.9605 11.6962 24.4472C10.2721 22.7178 8.20249 18.7043 6.51262 15.0293C5.01262 11.7866 3.66451 9.25822 2.31641 7.91414C1.1392 6.82385 0.607553 6.72046 -4.19617e-05 6.58887L1.20565 6.58887C1.83224 6.86144 2.90502 7.38779 4.10122 8.62848C5.41135 10.0102 6.61705 11.8524 7.59489 13.704C8.14553 14.7285 10.386 19.5597 12.3038 23.2159C14.2215 26.7782 15.7025 27.2763 16.7563 27.5019C17.5822 27.6617 18.8259 27.6335 19.8322 27.3139C20.5917 27.079 22.1487 26.5056 22.424 23.3945C22.8038 19.2965 20.7436 17.9524 17.7626 16.9185L17.7626 16.5613C18.9398 16.8715 21.9588 18.0652 23.0411 20.0578C24.2848 22.0598 23.962 24.3532 23.0886 25.5281L23.1076 25.5281Z" fill="#FE586A"/>
<path d="M6.90193 25.5281C7.76585 26.7594 9.05699 27.5677 10.2437 27.8027C11.1171 28.0001 12.2564 28.1129 13.6329 27.8403C15.3323 27.5207 17.1456 25.9605 18.3133 24.4472C19.7374 22.7178 21.807 18.7043 23.4969 15.0293C24.9969 11.7866 26.345 9.25822 27.6931 7.91414C28.8703 6.82385 29.4019 6.72045 30.0095 6.58887L28.8038 6.58887C28.1772 6.86144 27.1045 7.38779 25.9083 8.62848C24.5981 10.0102 23.3924 11.8524 22.4146 13.704C21.864 14.7285 19.6234 19.5597 17.7057 23.2159C15.788 26.7782 14.307 27.2763 13.2532 27.5019C12.4272 27.6617 11.1836 27.6335 10.1772 27.3139C9.41775 27.079 7.86079 26.5056 7.58547 23.3945C7.20572 19.2965 9.26585 17.9524 12.2469 16.9185L12.2469 16.5613C11.0696 16.8715 8.05066 18.0652 6.96838 20.0578C5.72471 22.0598 6.0475 24.3532 6.92092 25.5281L6.90193 25.5281Z" fill="#FE586A"/>
<path d="M13.7279 14.0517C13.7279 14.6539 14.2209 15.142 14.8292 15.142C15.4374 15.142 15.9304 14.6539 15.9304 14.0517C15.9304 13.4496 15.4374 12.9614 14.8292 12.9614C14.2209 12.9614 13.7279 13.4496 13.7279 14.0517Z" fill="#FE586A"/>
</g>
<defs>
<clipPath id="clip0_116_6053">
<rect width="28" height="30" fill="white" transform="translate(30) rotate(90)"/>
</clipPath>
</defs>
</svg>
