<svg width="145" height="34" viewBox="0 0 145 34" fill="none" xmlns="http://www.w3.org/2000/svg">
<g clip-path="url(#clip0_116_5933)">
<path d="M39.8386 25.2554C39.0102 25.0245 38.2292 24.6538 37.4837 24.1494C36.7381 23.645 36.0932 23.0191 35.5488 22.2777C34.9986 21.5364 34.5666 20.6127 34.253 19.5128C33.9335 18.4129 33.7797 17.1914 33.7797 15.8545V3.82841C33.7797 3.23288 33.7087 2.74065 33.5726 2.34566C33.4365 1.95066 33.2294 1.65289 32.9513 1.44628C32.6732 1.23967 32.3774 1.08775 32.0638 0.990517C31.7502 0.893288 31.3596 0.832519 30.8922 0.796058V0.303833H39.6433V0.789981C39.17 0.826442 38.7795 0.887211 38.4718 0.984441C38.1582 1.08167 37.8623 1.23359 37.5783 1.4402C37.2943 1.64682 37.0813 1.95066 36.9452 2.33958C36.8091 2.73457 36.7381 3.2268 36.7381 3.82233V15.812C36.7381 18.4007 37.3002 20.3939 38.4304 21.8098C39.5605 23.2196 41.0989 23.9246 43.0633 23.9246C43.9627 23.9246 44.7911 23.7726 45.5603 23.4749C46.3295 23.1771 47.0217 22.7274 47.6371 22.1319C48.2525 21.5364 48.7436 20.7281 49.0986 19.7011C49.4536 18.6802 49.6311 17.4892 49.6311 16.1401V3.82841C49.6311 3.23288 49.5601 2.74065 49.4181 2.34566C49.2761 1.95066 49.0572 1.65289 48.7672 1.44628C48.4773 1.23967 48.1696 1.08775 47.8501 0.990517C47.5247 0.893288 47.1223 0.832519 46.6431 0.796058V0.303833H53.6723V0.789981C53.199 0.826442 52.8026 0.887211 52.483 0.984441C52.1576 1.08167 51.8499 1.23359 51.5541 1.4402C51.2582 1.64682 51.0393 1.95066 50.8914 2.35173C50.7435 2.7528 50.6725 3.24503 50.6725 3.82841V16.4136C50.6725 17.9085 50.4595 19.2515 50.0394 20.4365C49.6193 21.6214 49.0335 22.5877 48.282 23.329C47.5306 24.0704 46.6667 24.6356 45.6786 25.0245C44.6905 25.4134 43.6136 25.6079 42.442 25.6079C41.5427 25.6079 40.6847 25.4924 39.8563 25.2615L39.8386 25.2554Z" fill="#FF8390"/>
<path d="M59.6425 23.4627L59.5774 17.3372H60.0685C60.2519 18.6316 60.5833 19.7558 61.0626 20.7159C61.5359 21.6761 62.1158 22.4296 62.7962 22.9765C63.4767 23.5235 64.1867 23.9184 64.9381 24.1737C65.6896 24.4289 66.4884 24.5504 67.3463 24.5504C69.0208 24.5504 70.3462 24.119 71.3107 23.25C72.281 22.3871 72.7662 21.2264 72.7662 19.774C72.7662 19.3122 72.7011 18.8807 72.5769 18.4857C72.4526 18.0847 72.2929 17.7261 72.1035 17.4041C71.9142 17.082 71.6479 16.766 71.3166 16.4621C70.9852 16.1522 70.648 15.8848 70.3166 15.66C69.9853 15.4352 69.5593 15.1921 69.0504 14.9369C68.5415 14.6756 68.0741 14.4568 67.6481 14.2684C67.2221 14.08 66.6955 13.8613 66.0742 13.5999C63.7666 12.7006 62.0862 11.6614 61.0507 10.4886C60.0094 9.31577 59.5005 7.9667 59.5242 6.44749C59.5478 4.55759 60.2815 3.00799 61.7312 1.7987C63.1808 0.589402 65.1334 -0.012207 67.583 -0.012207C70.0326 -0.012207 72.2455 0.583325 74.5472 1.77439L74.6478 7.59601H74.1567C74.0029 6.59333 73.7544 5.70004 73.4171 4.91612C73.0798 4.12613 72.6893 3.49414 72.2574 3.00799C71.8254 2.52184 71.3403 2.12685 70.7959 1.81693C70.2515 1.50701 69.719 1.28824 69.1865 1.1667C68.654 1.04517 68.0978 0.97832 67.5179 0.97832C65.873 0.97832 64.5535 1.39155 63.5418 2.218C62.53 3.04445 62.0211 4.05929 61.9974 5.2625C61.9974 6.42926 62.5536 7.48663 63.6719 8.42247C64.7902 9.36438 66.5712 10.3002 69.0267 11.2482C70.4409 11.8316 71.5888 12.4514 72.4822 13.1016C73.3757 13.7519 74.068 14.5419 74.5591 15.4716C75.0502 16.4014 75.2928 17.4648 75.2809 18.668C75.2691 19.8591 75.0502 20.9104 74.6241 21.8159C74.1981 22.7213 73.6183 23.4445 72.8846 23.9853C72.1509 24.5261 71.3225 24.9272 70.4054 25.1885C69.4883 25.4498 68.4765 25.5835 67.3818 25.5835C64.7666 25.5835 62.1868 24.8725 59.6484 23.4445L59.6425 23.4627Z" fill="#FF8390"/>
<path d="M88.4283 24.4958C88.7478 24.3986 89.0496 24.2466 89.3336 24.04C89.6176 23.8334 89.8306 23.5296 89.9726 23.1407C90.1146 22.7457 90.1856 22.2534 90.1856 21.6579V1.34905H87.4579C86.5053 1.34905 85.6947 1.47667 85.0261 1.72582C84.3575 1.98104 83.825 2.35173 83.4226 2.85003C83.0203 3.34226 82.7185 3.88918 82.5055 4.47863C82.2925 5.06809 82.1268 5.773 82.0025 6.59338L81.4582 6.52653L81.8014 1.24575L81.8665 0.303833H101.511L101.576 1.24575L101.907 6.52653L101.38 6.59338C101.268 5.773 101.114 5.06809 100.907 4.47863C100.7 3.88918 100.392 3.34834 99.9959 2.85003C99.5935 2.35781 99.061 1.98104 98.3924 1.72582C97.7238 1.47059 96.9132 1.34905 95.9606 1.34905H93.1027V21.6579C93.1027 22.7821 93.3512 23.5478 93.8482 23.961C94.3452 24.3743 95.073 24.6173 96.0256 24.6963V25.1825H87.239V24.6963C87.7124 24.6599 88.1029 24.5991 88.4224 24.5019L88.4283 24.4958Z" fill="#FF8390"/>
<path d="M24.8215 15.6661L24.7565 15.8484C23.3482 19.7133 22.3246 21.5424 20.7034 23.0981C19.3957 24.3135 17.1946 24.3925 16.0112 24.4289H15.8219L4.27208 24.5201C4.92294 24.1372 5.65072 23.6146 6.33708 22.8732C7.67431 21.4148 9.0352 19.3608 10.2837 16.9422C10.5085 16.5047 10.9937 15.4656 11.6031 14.159C12.6919 11.8194 14.1829 8.61694 15.5438 5.93705C17.6266 1.92633 19.3957 1.11811 20.5495 0.862877C21.514 0.650187 22.6855 0.917569 23.3127 1.05734L23.6322 1.13026V0.218731L23.4074 0.18227C22.8749 0.103271 21.0051 -0.139804 19.4549 0.188347C17.3426 0.601573 14.8929 2.58263 13.6622 4.22338C11.686 6.71489 8.93461 12.7188 7.8459 15.186C6.46134 18.2852 4.82827 21.6822 3.21887 23.3412C2.25441 24.2648 1.70414 24.5505 1.21303 24.6963C0.976356 24.7692 0.733762 24.7996 0.491169 24.8057L0.00598145 24.8178V25.5896H22.4903L22.5731 25.3101L23.0583 23.8212C24.0168 20.874 25.2121 17.2096 25.5375 16.0307L25.6322 15.6965L24.8275 15.6722L24.8215 15.6661Z" fill="#FF8390"/>
<path d="M124.942 21.0684C124.078 19.8591 123.474 18.5222 123.125 17.0577C122.776 15.5932 122.705 14.0071 122.912 12.2995C123.119 10.598 123.628 8.93902 124.433 7.32865C125.232 5.73044 126.237 4.35707 127.45 3.2207C128.663 2.08433 129.941 1.2518 131.29 0.723113C132.64 0.194426 134.036 -0.0425713 135.474 -3.32743e-05C136.917 0.0485816 138.267 0.401039 139.533 1.06949C140.799 1.73795 141.87 2.65555 142.752 3.84054C143.633 5.01945 144.26 6.32597 144.633 7.76011C145.006 9.19425 145.095 10.7499 144.905 12.4271C144.716 14.1043 144.219 15.739 143.42 17.3433C142.615 18.9537 141.598 20.3392 140.367 21.506C139.136 22.6727 137.835 23.5296 136.462 24.0947C135.089 24.6538 133.675 24.9272 132.214 24.909C130.752 24.8908 129.391 24.5444 128.125 23.882C126.865 23.2136 125.8 22.2777 124.936 21.0745L124.942 21.0684ZM125.237 14.4507C124.971 16.3346 125.113 18.0543 125.663 19.61C126.214 21.1657 127.178 22.302 128.551 23.0312C129.935 23.7605 131.403 23.9002 132.965 23.4566C134.527 23.0069 135.977 22.1197 137.314 20.795C138.651 19.4702 139.799 17.8538 140.758 15.9396C141.704 14.0497 142.302 12.178 142.55 10.3306C142.799 8.47718 142.639 6.79389 142.065 5.26252C141.491 3.73723 140.515 2.60694 139.13 1.87771C137.758 1.15457 136.302 0.996571 134.764 1.41587C133.225 1.8291 131.793 2.68594 130.474 3.98031C129.149 5.27468 128.012 6.86681 127.072 8.75671C126.131 10.6466 125.504 12.5669 125.237 14.4507Z" fill="#FF8390"/>
<path d="M102.327 26.2095C103.54 25.9785 103.848 26.7807 103.806 27.4674C103.795 28.5855 103.676 30.2749 105.345 31.5753C106.789 32.6813 108.191 33.3802 111.7 32.8575C115.912 32.2438 120.764 25.8874 123.865 22.1258C126.669 18.7775 129.598 15.0037 132.906 14.548C136.373 14.0679 138.065 15.2468 138.722 16.3589C139.195 17.2279 139.432 18.0483 138.959 20.8436C138.45 23.408 138.521 21.1231 138.391 20.9104C138.651 19.3426 138.852 17.0638 137.681 15.9882C136.917 15.2954 134.959 14.9794 132.823 16.0186C130.066 17.3494 127.492 21.1961 125.687 23.3777C123.794 25.7294 120.439 30.524 115.06 33.0702C113.279 33.8663 110.232 34.4071 107.67 33.6172C104.445 32.6449 102.854 30.129 102.41 29.4545C101.469 28.0264 101.398 26.489 102.321 26.2155L102.327 26.2095Z" fill="#FF8390"/>
<path d="M111.765 4.70956C112.993 4.70956 113.989 3.68658 113.989 2.42467C113.989 1.16275 112.993 0.139771 111.765 0.139771C110.536 0.139771 109.54 1.16275 109.54 2.42467C109.54 3.68658 110.536 4.70956 111.765 4.70956Z" fill="#FF8390"/>
<path d="M112.279 18.6802C112.137 18.0786 111.995 17.4831 111.877 16.8815C111.729 16.1644 111.735 15.4291 111.877 14.712C112.25 12.8404 112.747 10.993 113.333 9.1578C113.871 7.62036 112.362 6.05253 110.848 6.60552C109.824 6.96406 109.28 8.10651 109.629 9.1578C110.043 10.4036 110.374 11.6493 110.676 12.8951C110.818 13.4967 110.96 14.0922 111.078 14.6938C111.226 15.4109 111.22 16.1462 111.078 16.8633C110.706 18.7349 110.209 20.5823 109.623 22.4175C109.084 23.9549 110.593 25.5228 112.108 24.9698C113.131 24.6112 113.676 23.4688 113.327 22.4175C112.913 21.1717 112.581 19.926 112.279 18.6802Z" fill="#FF8390"/>
</g>
<defs>
<clipPath id="clip0_116_5933">
<rect width="145" height="34" fill="white"/>
</clipPath>
</defs>
</svg>
